<svg version="1.1" xmlns="http://www.w3.org/2000/svg" xmlns:xlink="http://www.w3.org/1999/xlink" x="0px" y="0px" viewBox="0 0 1000 1000" enable-background="new 0 0 1000 1000" xml:space="preserve">
	<path stroke-width="100" stroke="blue" fill="blue" d="M815,537.2c-19.3,0-35,15.7-35,35V850c0,19.3-15.7,35-35,35H115c-19.3,0-35-15.7-35-35V220c0-19.3,15.7-35,35-35h420v0c0.4,0,0.7,0,1.1,0c19.3,0,35-15.7,35-35s-15.7-35-35-35c-0.4,0-0.7,0-1.1,0v0H80c-38.7,0-70,31.3-70,70v700c0,38.7,31.3,70,70,70h700c38.7,0,70-31.3,70-70V572.2C850,552.9,834.3,537.2,815,537.2z"/>
	<path stroke-width="10" stroke="blue" fill="blue" d="M955,45H675c-19.3,0-23.9,11.1-10.3,24.8l113.1,113.1L415.7,545c-20.5,20.5-20.5,53.7,0,74.2c20.5,20.5,53.7,20.5,74.2,0l362.2-362.2l113.1,113.1c13.7,13.7,24.8,9.1,24.8-10.3V80C990,60.7,974.3,45,955,45z"/>
</svg>