<svg version="1.1" xmlns="http://www.w3.org/2000/svg" xmlns:xlink="http://www.w3.org/1999/xlink" x="0px" y="0px" viewBox="0 0 1000 1000" enable-background="new 0 0 1000 1000" xml:space="preserve">
<g><g><g id="_x31_5_38_"><g><path d="M249.5,243.1h14c21.3,0,38.6-17.3,38.6-38.6V98V58.2c0-21.3-17.3-38.6-38.6-38.6h-14c-21.3,0-38.6,17.3-38.6,38.6V98v106.5C210.9,225.8,228.2,243.1,249.5,243.1z"/><path d="M744.3,242.1h14c21.3,0,38.6-17.3,38.6-38.6V87.9V57.2c0-21.3-17.3-38.6-38.6-38.6h-14c-21.3,0-38.6,17.3-38.6,38.6v30.7v115.6C705.7,224.8,723,242.1,744.3,242.1z"/><path d="M927.3,98h-99v115.6c0,38.6-31.4,59.8-69.9,59.8h-14c-38.6,0-69.9-31.4-69.9-69.9V98H333.4v106.5c0,38.6-31.4,69.9-69.9,69.9h-14c-38.6,0-69.9-31.4-69.9-69.9V98H72.7C38.1,98,10,126.2,10,160.7v757.9c0,34.6,28.1,62.7,62.7,62.7h854.6c34.6,0,62.7-28.1,62.7-62.7V160.7C990,126.2,961.9,98,927.3,98z M927.3,918.6H72.7l0-572.3h854.6L927.3,918.6C927.3,918.6,927.3,918.6,927.3,918.6z"/><path d="M532.4,538.3H645c4.5,0,8.1-3.6,8.1-8.1v-97.5c0-4.5-3.6-8.1-8.1-8.1H532.4c-4.5,0-8.1,3.6-8.1,8.1v97.5C524.3,534.6,527.9,538.3,532.4,538.3z"/><path d="M716.2,538.3h112.6c4.5,0,8.1-3.6,8.1-8.1v-97.5c0-4.5-3.6-8.1-8.1-8.1H716.2c-4.5,0-8.1,3.6-8.1,8.1v97.5C708.1,534.6,711.7,538.3,716.2,538.3z"/><path d="M164.8,697.9h112.6c4.5,0,8.1-3.6,8.1-8.1v-97.5c0-4.5-3.6-8.1-8.1-8.1H164.8c-4.5,0-8.1,3.6-8.1,8.1v97.5C156.7,694.3,160.4,697.9,164.8,697.9z"/><path d="M348.6,697.9h112.6c4.5,0,8.1-3.6,8.1-8.1v-97.5c0-4.5-3.6-8.1-8.1-8.1H348.6c-4.5,0-8.1,3.6-8.1,8.1v97.5C340.5,694.3,344.1,697.9,348.6,697.9z"/><path d="M532.4,697.9H645c4.5,0,8.1-3.6,8.1-8.1v-97.5c0-4.5-3.6-8.1-8.1-8.1H532.4c-4.5,0-8.1,3.6-8.1,8.1v97.5C524.3,694.3,527.9,697.9,532.4,697.9z"/><path d="M716.2,697.9h112.6c4.5,0,8.1-3.6,8.1-8.1v-97.5c0-4.5-3.6-8.1-8.1-8.1H716.2c-4.5,0-8.1,3.6-8.1,8.1v97.5C708.1,694.3,711.7,697.9,716.2,697.9z"/><path d="M277.4,743.9H164.8c-4.5,0-8.1,3.6-8.1,8.1v97.5c0,4.5,3.6,8.1,8.1,8.1h112.6c4.5,0,8.1-3.6,8.1-8.1V752C285.5,747.5,281.9,743.9,277.4,743.9z"/><path d="M461.2,743.9H348.6c-4.5,0-8.1,3.6-8.1,8.1v97.5c0,4.5,3.6,8.1,8.1,8.1h112.6c4.5,0,8.1-3.6,8.1-8.1V752C469.3,747.5,465.7,743.9,461.2,743.9z"/><path d="M645,743.9H532.4c-4.5,0-8.1,3.6-8.1,8.1v97.5c0,4.5,3.6,8.1,8.1,8.1H645c4.5,0,8.1-3.6,8.1-8.1V752C653.1,747.5,649.5,743.9,645,743.9z"/><path d="M828.8,743.9H716.2c-4.5,0-8.1,3.6-8.1,8.1v97.5c0,4.5,3.6,8.1,8.1,8.1h112.6c4.5,0,8.1-3.6,8.1-8.1V752C836.9,747.5,833.2,743.9,828.8,743.9z"/></g></g></g><g></g><g></g><g></g><g></g><g></g><g></g><g></g><g></g><g></g><g></g><g></g><g></g><g></g><g></g><g></g></g>
</svg>