<?xml version="1.0" encoding="utf-8"?>
<!-- Svg Vector Icons : http://www.onlinewebfonts.com/icon -->
<!DOCTYPE svg PUBLIC "-//W3C//DTD SVG 1.1//EN" "http://www.w3.org/Graphics/SVG/1.1/DTD/svg11.dtd">
<svg version="1.1" xmlns="http://www.w3.org/2000/svg" xmlns:xlink="http://www.w3.org/1999/xlink" x="0px" y="0px" viewBox="0 0 1000 1000" enable-background="new 0 0 1000 1000" xml:space="preserve">
<metadata> Svg Vector Icons : http://www.onlinewebfonts.com/icon </metadata>
<g><g transform="translate(0.000000,512.000000) scale(0.100000,-0.100000)"><path d="M1614.3,4997.1c-367.7-69-691.4-239.4-967.2-515.2c-281.5-281.6-448.2-601.4-515.2-982.6c-42.1-237.5-42.1-4370.7-1.9-4587.2c61.3-319.9,160.9-507.6,385-733.6c174.3-174.3,363.9-291.1,609.1-375.4c369.7-126.4,256.7-118.7,2352-130.2l1909.6-11.5l1342.6-1222l1342.6-1220v1222v1223.9l151.3,13.4c683.8,55.5,1298.6,509.5,1551.4,1143.4c134.1,335.2,126.4,182,126.4,2526.3c0,1959.4-1.9,2126-34.5,2248.6c-176.2,687.6-658.9,1179.8-1352.2,1377.1l-145.5,42.1l-3303.9,3.8C2319.1,5022,1735,5018.2,1614.3,4997.1z M8329.4,4384.2c455.8-95.8,842.7-482.7,938.5-938.5c42.1-199.2,42.1-3995.3,0-4194.5c-72.8-348.6-325.6-674.2-641.6-831.2c-231.8-113-362-136-798.7-136h-369.6l-3.8-846.6l-5.7-848.5l-913.6,846.6L5623-1718l-2018.7,5.8c-1999.6,5.7-2018.7,7.6-2162.4,47.9c-392.6,111.1-612.9,310.3-697.2,628.2c-42.1,166.6-42.1,4276.9,0,4481.8c93.8,450.1,480.7,840.8,928.9,936.6C1865.2,4424.4,8134,4424.4,8329.4,4384.2z"/><path d="M2736.7,2547.4c-128.3-55.5-201.1-203-174.3-346.7c17.2-90,113-195.4,199.2-220.3c47.9-15.3,768-19.2,2286.9-15.3c2202.6,5.7,2216,5.7,2267.7,46c101.5,74.7,132.1,136,132.1,256.6c0,120.7-30.6,182-132.1,256.7c-51.7,40.2-63.2,40.2-2286.9,44.1C3200.2,2572.3,2782.6,2568.5,2736.7,2547.4z"/><path d="M3349.6,708.7c-128.3-55.5-201.1-203-174.3-346.7c17.2-90,113-195.4,199.2-220.3c47.9-15.3,584.2-19.2,1674-15.3c1584,5.7,1603.1,5.7,1654.8,46c101.5,74.7,132.2,136,132.2,256.7c0,120.7-30.6,182-132.2,256.6c-51.7,40.2-68.9,40.2-1674,44.1C3709.6,733.6,3395.5,729.8,3349.6,708.7z"/></g></g>
</svg>